<?xml version="1.0" standalone="no"?>
<!DOCTYPE svg PUBLIC "-//W3C//DTD SVG 20010904//EN"
 "http://www.w3.org/TR/2001/REC-SVG-20010904/DTD/svg10.dtd">
<svg version="1.0" xmlns="http://www.w3.org/2000/svg"
 width="300.000000pt" height="250.000000pt" fill="white" viewBox="0 0 300.000000 200.000000"
 preserveAspectRatio="xMidYMid meet">
<metadata>
Created by potrace 1.10, written by Peter Selinger 2001-2011
</metadata>
<g transform="translate(0.000000,300.000000) scale(0.100000,-0.100000)"
fill="#000000" stroke="none">
<path  fill="white" d="M895 2362 c-10 -26 -26 -65 -35 -87 -26 -58 -214 -498 -310 -725 -45
-107 -102 -239 -126 -293 -24 -54 -44 -101 -44 -103 0 -2 13 -4 28 -4 28 0 32
8 172 338 79 185 158 371 176 412 78 178 153 358 168 400 13 39 15 41 16 17 0
-19 11 -39 31 -58 36 -34 36 -43 -16 -158 -19 -42 -75 -173 -125 -291 -171
-404 -193 -455 -237 -553 -23 -54 -43 -101 -43 -103 0 -2 13 -4 28 -4 27 0 32
7 115 203 361 849 349 819 337 843 -7 12 -10 28 -7 36 3 7 6 2 6 -12 1 -16 4
-21 9 -12 6 8 15 3 32 -20 22 -31 22 -32 2 -14 -40 35 -23 2 28 -54 38 -43 49
-51 50 -35 0 16 2 17 9 5 13 -19 3 -32 -18 -25 -13 4 -21 -5 -35 -37 -9 -24
-21 -50 -25 -58 -4 -8 -24 -53 -44 -100 -20 -47 -70 -166 -113 -265 -42 -99
-87 -205 -99 -235 -12 -30 -39 -92 -59 -138 l-36 -83 31 3 c28 3 33 10 68 93
208 488 327 771 335 798 3 9 10 17 16 17 6 0 10 -8 8 -17 -2 -11 2 -17 10 -15
8 1 11 -2 7 -8 -10 -17 34 -60 54 -52 13 4 14 3 5 -9 -13 -16 -52 -104 -154
-344 -40 -93 -87 -204 -105 -245 -18 -41 -46 -108 -63 -147 l-31 -73 30 0 c23
0 32 6 40 28 5 15 23 56 39 92 16 36 61 142 100 235 40 94 82 193 94 220 13
28 34 78 47 112 21 56 49 84 49 51 0 -7 24 -38 53 -69 29 -30 72 -77 96 -104
26 -28 47 -43 49 -36 2 7 14 23 26 35 11 13 36 41 55 62 19 22 52 58 73 81 21
24 38 52 38 64 0 11 15 35 33 53 18 18 37 41 41 51 6 16 9 17 16 5 8 -12 10
-12 10 3 0 10 15 34 34 52 19 18 31 37 28 41 -4 4 1 4 10 1 12 -4 15 -2 11 9
-3 8 1 14 11 14 9 0 16 6 16 14 0 8 24 39 53 68 28 30 67 71 85 92 36 42 55
42 28 0 -20 -29 -11 -49 9 -21 13 17 14 17 20 -3 4 -12 2 -27 -3 -32 -11 -11
-8 -21 28 -103 12 -28 32 -75 45 -105 13 -30 51 -118 84 -195 34 -77 61 -143
61 -147 0 -4 16 -42 36 -85 20 -43 48 -107 64 -143 15 -36 44 -101 63 -145 19
-44 45 -106 58 -137 21 -50 28 -58 51 -58 l28 0 -25 53 c-13 28 -61 140 -106
247 -45 107 -98 232 -119 276 -21 45 -41 92 -45 105 -4 13 -17 44 -28 69 -33
74 -117 269 -154 360 -19 47 -39 89 -44 94 -5 6 -9 18 -9 28 0 17 -20 27 -20
11 0 -11 -18 -31 -275 -313 -27 -30 -54 -59 -60 -66 -5 -6 -42 -47 -82 -91
-88 -96 -109 -121 -135 -153 l-20 -25 -25 30 c-14 17 -44 50 -67 75 -56 61
-434 487 -467 527 l-27 32 -17 -47z m405 -427 c7 -9 11 -18 8 -20 -9 -10 -38
7 -38 21 0 18 14 18 30 -1z"/>
<path  fill="white" d="M2026 2258 c-17 -23 -21 -58 -8 -58 6 0 22 27 39 68 9 21 -15 13 -31
-10z"/>
<path  fill="white" d="M1970 2195 c-20 -21 -22 -28 -11 -35 8 -4 11 -15 8 -24 -4 -9 -1 -16
6 -16 19 0 41 58 31 81 -9 20 -10 19 -34 -6z"/>
<path  fill="white" d="M2010 2121 c0 -11 5 -23 10 -26 6 -3 10 -12 10 -18 0 -7 -9 -1 -20
13 -27 34 -25 11 4 -52 13 -29 43 -98 66 -153 23 -55 51 -119 61 -142 10 -23
19 -44 19 -47 0 -3 16 -38 35 -78 18 -40 64 -145 101 -233 95 -229 98 -235
134 -235 l30 0 -25 40 c-14 22 -25 44 -25 50 0 5 -13 38 -29 72 -39 86 -84
189 -121 278 -18 41 -38 90 -46 108 -8 17 -20 47 -28 65 -8 17 -31 68 -50 111
-20 43 -48 109 -62 145 -42 107 -48 121 -56 121 -5 0 -8 -9 -8 -19z"/>
<path  fill="white" d="M1940 2107 c0 -8 -7 -17 -15 -21 -9 -3 -15 -18 -15 -36 0 -39 -15
-38 -29 2 l-11 32 -20 -22 c-18 -19 -18 -23 -5 -56 19 -44 19 -61 1 -79 -8 -8
-16 -23 -18 -33 -2 -10 -7 -22 -12 -25 -5 -4 -6 -13 -3 -20 3 -8 15 8 28 38
13 29 29 53 34 53 6 0 17 17 24 38 8 20 25 54 38 74 25 41 28 54 13 63 -5 3
-10 0 -10 -8z"/>
<path  fill="white" d="M1040 2098 c0 -18 35 -69 43 -62 6 7 -10 39 -30 62 -11 11 -13 11
-13 0z"/>
<path  fill="white" d="M1910 1946 c0 -16 -4 -25 -10 -21 -5 3 -10 2 -10 -2 0 -9 54 -152 75
-198 8 -16 39 -88 70 -160 31 -71 72 -164 91 -206 19 -42 34 -80 34 -84 0 -18
54 -117 67 -122 22 -8 47 5 36 20 -11 14 -103 219 -103 229 0 4 -16 42 -36 85
-46 100 -79 176 -149 343 -32 74 -59 137 -61 139 -2 2 -4 -8 -4 -23z"/>
<path  fill="white" d="M1726 1928 c-18 -20 -18 -23 4 -77 30 -73 47 -111 129 -293 11 -26
21 -54 21 -61 0 -7 4 -17 9 -23 5 -5 21 -38 36 -74 15 -36 35 -84 46 -106 10
-23 27 -63 37 -90 16 -39 25 -50 46 -52 14 -2 26 1 26 6 0 9 -40 103 -124 295
-14 32 -26 61 -26 64 0 4 -9 25 -19 47 -10 23 -26 57 -34 76 -8 19 -29 66 -46
104 -17 38 -29 71 -26 74 2 3 -4 17 -14 31 -10 14 -24 43 -32 63 l-15 38 -18
-22z"/>
</g>
</svg>
